<?xml version="1.0" encoding="UTF-8"?>
<svg xmlns="http://www.w3.org/2000/svg" xmlns:xlink="http://www.w3.org/1999/xlink" width="50pt" height="50pt" viewBox="0 0 50 50" version="1.1">
<g id="surface1">
<path style=" stroke:none;fill-rule:nonzero;fill:rgb(0%,0%,0%);fill-opacity:1;" d="M 15.703125 4.875 C 14.71875 5.1875 13.757812 5.9375 13.195312 6.816406 C 13.039062 7.070312 12.402344 8.554688 11.765625 10.117188 L 10.632812 12.960938 L 7.246094 13.515625 C 5.382812 13.828125 3.679688 14.121094 3.46875 14.179688 C 1.960938 14.5625 0.644531 15.8125 0.1875 17.296875 C 0.0078125 17.859375 0 18.398438 0 30.46875 C 0 42.539062 0.0078125 43.078125 0.1875 43.640625 C 0.632812 45.078125 1.867188 46.296875 3.3125 46.71875 C 3.789062 46.855469 5.976562 46.875 25.019531 46.875 L 46.203125 46.875 L 46.804688 46.671875 C 47.578125 46.414062 48.203125 46.015625 48.75 45.429688 C 49.296875 44.835938 49.539062 44.421875 49.796875 43.679688 C 50 43.078125 50 42.988281 50 30.476562 C 50 18.398438 49.992188 17.859375 49.8125 17.296875 C 49.367188 15.851562 48.105469 14.617188 46.679688 14.21875 C 46.386719 14.140625 44.617188 13.828125 42.753906 13.515625 L 39.367188 12.960938 L 38.234375 10.117188 C 37.597656 8.554688 36.960938 7.070312 36.804688 6.816406 C 36.453125 6.269531 35.742188 5.585938 35.15625 5.253906 C 34.148438 4.667969 34.453125 4.6875 24.960938 4.695312 C 16.835938 4.695312 16.21875 4.707031 15.703125 4.875 Z M 33.445312 8.015625 C 33.613281 8.117188 33.828125 8.28125 33.925781 8.390625 C 34.03125 8.507812 34.765625 10.214844 35.554688 12.1875 C 36.777344 15.226562 37.03125 15.78125 37.21875 15.851562 C 37.34375 15.890625 39.316406 16.230469 41.601562 16.609375 C 44.328125 17.0625 45.851562 17.351562 46.046875 17.46875 C 46.464844 17.714844 46.757812 18.195312 46.828125 18.78125 C 46.855469 19.0625 46.875 24.511719 46.855469 30.90625 C 46.828125 42.324219 46.828125 42.539062 46.632812 42.859375 C 46.375 43.289062 46.023438 43.546875 45.546875 43.652344 C 45.039062 43.78125 4.960938 43.78125 4.453125 43.652344 C 3.976562 43.546875 3.625 43.289062 3.367188 42.859375 C 3.171875 42.539062 3.171875 42.324219 3.144531 30.90625 C 3.125 24.511719 3.144531 19.0625 3.171875 18.78125 C 3.242188 18.195312 3.535156 17.714844 3.953125 17.46875 C 4.148438 17.351562 5.671875 17.0625 8.398438 16.609375 C 10.683594 16.230469 12.65625 15.890625 12.78125 15.851562 C 12.976562 15.78125 13.222656 15.242188 14.40625 12.273438 C 15.175781 10.351562 15.878906 8.671875 15.96875 8.535156 C 16.152344 8.242188 16.515625 8.007812 16.921875 7.910156 C 17.089844 7.859375 20.820312 7.832031 25.195312 7.84375 C 32.382812 7.859375 33.183594 7.882812 33.445312 8.015625 Z M 33.445312 8.015625 "/>
<path style=" stroke:none;fill-rule:nonzero;fill:rgb(0%,0%,0%);fill-opacity:1;" d="M 22.714844 15.78125 C 21.71875 15.96875 20.390625 16.40625 19.355469 16.914062 C 17.109375 18.015625 14.992188 20.117188 13.820312 22.421875 C 12.910156 24.1875 12.5 25.976562 12.5 28.125 C 12.5 31.679688 13.742188 34.648438 16.242188 37.078125 C 17.304688 38.117188 18.125 38.710938 19.296875 39.304688 C 21.0625 40.203125 22.882812 40.632812 25 40.632812 C 28.515625 40.632812 31.367188 39.453125 33.847656 36.972656 C 36.328125 34.492188 37.5 31.640625 37.5 28.125 C 37.5 25.476562 36.84375 23.28125 35.382812 21.054688 C 34.796875 20.164062 32.960938 18.328125 32.070312 17.742188 C 30.566406 16.757812 28.835938 16.0625 27.207031 15.773438 C 26.125 15.585938 23.78125 15.585938 22.714844 15.78125 Z M 27.585938 19.179688 C 30.644531 20.097656 33 22.453125 33.953125 25.554688 C 34.199219 26.347656 34.21875 26.542969 34.21875 28.125 C 34.21875 29.707031 34.199219 29.902344 33.953125 30.695312 C 33.476562 32.234375 32.832031 33.351562 31.757812 34.484375 C 30.019531 36.328125 27.960938 37.273438 25.460938 37.375 C 23.601562 37.453125 22.324219 37.195312 20.800781 36.425781 C 19.914062 35.976562 19.414062 35.617188 18.574219 34.824219 C 17.351562 33.664062 16.542969 32.34375 16.054688 30.695312 C 15.742188 29.65625 15.625 27.546875 15.8125 26.53125 C 16.054688 25.28125 16.632812 23.847656 17.3125 22.859375 C 18.117188 21.6875 19.53125 20.460938 20.800781 19.824219 C 22.351562 19.054688 23.339844 18.835938 25.242188 18.886719 C 26.484375 18.914062 26.84375 18.953125 27.585938 19.179688 Z M 27.585938 19.179688 "/>
<path style=" stroke:none;fill-rule:nonzero;fill:rgb(0%,0%,0%);fill-opacity:1;" d="M 23.40625 22.03125 C 20.839844 22.648438 18.75 25.234375 18.75 27.78125 C 18.75 28.554688 18.835938 28.75 19.25 28.898438 C 19.71875 29.0625 20.175781 28.828125 20.304688 28.351562 C 20.359375 28.144531 20.410156 27.84375 20.410156 27.675781 C 20.410156 27.304688 20.664062 26.4375 20.917969 25.929688 C 21.179688 25.421875 22.109375 24.453125 22.636719 24.148438 C 23.171875 23.835938 24.132812 23.535156 24.601562 23.535156 C 25.085938 23.535156 25.566406 23.359375 25.683594 23.144531 C 25.851562 22.832031 25.800781 22.285156 25.585938 22.070312 C 25.421875 21.90625 25.265625 21.875 24.6875 21.882812 C 24.296875 21.882812 23.71875 21.953125 23.40625 22.03125 Z M 23.40625 22.03125 "/>
</g>
</svg>
