<svg xmlns="http://www.w3.org/2000/svg" width="11.935" height="11.609" viewBox="0 0 11.935 11.609"><g transform="translate(0 -8.353)" opacity="0.2"><g transform="translate(0 8.353)"><path d="M151.908,9.482a.548.548,0,0,0-.024-.775l-.376-.354-.376.354-.024.024a.548.548,0,1,0,.8.752Z" transform="translate(-148.016 -8.353)" fill="#001d40"/><path d="M278.826,9.482a.548.548,0,0,0-.024-.775l-.376-.354-.376.354-.024.024a.548.548,0,0,0,.8.752Z" transform="translate(-272.46 -8.353)" fill="#001d40"/><path d="M405.744,9.482a.548.548,0,0,0-.024-.775l-.376-.354-.376.354-.024.024a.548.548,0,0,0,.8.752Z" transform="translate(-396.903 -8.353)" fill="#001d40"/><path d="M152.416,88.141a.53.53,0,0,0-.53.53v1.141h1.061V88.671A.53.53,0,0,0,152.416,88.141Z" transform="translate(-148.924 -86.585)" fill="#001d40"/><path d="M279.332,88.141a.53.53,0,0,0-.53.53v1.141h1.061V88.671A.53.53,0,0,0,279.332,88.141Z" transform="translate(-273.365 -86.585)" fill="#001d40"/><path d="M406.248,88.141a.53.53,0,0,0-.53.53v1.141h1.061V88.671A.53.53,0,0,0,406.248,88.141Z" transform="translate(-397.806 -86.585)" fill="#001d40"/><path d="M67.693,193.086a1.1,1.1,0,0,0-1.1-1.1H59.12a1.1,1.1,0,0,0-1.1,1.1v1.777h9.672v-1.777Z" transform="translate(-56.89 -188.406)" fill="#001d40"/><path d="M11.189,375.715H.745A.746.746,0,0,0,0,376.46v2.954a.746.746,0,0,0,.745.745H11.189a.746.746,0,0,0,.745-.745V376.46A.746.746,0,0,0,11.189,375.715Z" transform="translate(0 -368.551)" fill="#001d40"/></g></g></svg>