<?xml version="1.0" encoding="utf-8"?>
<!-- Generator: Adobe Illustrator 24.0.1, SVG Export Plug-In . SVG Version: 6.00 Build 0)  -->
<svg version="1.1" id="Layer_1" xmlns="http://www.w3.org/2000/svg" xmlns:xlink="http://www.w3.org/1999/xlink" x="0px" y="0px"
	 viewBox="0 0 156.2 35.3" style="enable-background:new 0 0 156.2 35.3;" xml:space="preserve">
<style type="text/css">
	.st0{clip-path:url(#SVGID_2_);}
	.st1{fill:#FFFFFF;}
	.st2{clip-path:url(#SVGID_4_);}
	.st3{clip-path:url(#SVGID_6_);fill:#FFFFFF;}
	.st4{clip-path:url(#SVGID_8_);fill:#00A3D5;}
	.st5{clip-path:url(#SVGID_10_);fill:#FFFFFF;}
	.st6{clip-path:url(#SVGID_12_);fill:#1381A3;}
	.st7{clip-path:url(#SVGID_14_);fill:#00A3D5;}
	.st8{clip-path:url(#SVGID_16_);fill:#1381A3;}
	.st9{clip-path:url(#SVGID_18_);fill:#00A3D5;}
	.st10{fill:#1381A3;}
	.st11{fill:#00A3D5;}
</style>
<g>
	<g>
		<g>
			<g>
				<defs>
					<rect id="SVGID_1_" y="-0.1" width="156.2" height="35.3"/>
				</defs>
				<clipPath id="SVGID_2_">
					<use xlink:href="#SVGID_1_"  style="overflow:visible;"/>
				</clipPath>
				<g transform="translate(0)" class="st0">
					<g transform="translate(39.924 11.741)">
						<path class="st1" d="M0.4,12.1l0.4-1c0.4,0.2,0.9,0.3,1.3,0.3c0.8,0,1.2-0.4,1.8-1.6L0,1.2h1.4l3.1,7.2l2.8-7.2h1.4L5,10.1
							c-0.7,1.8-1.6,2.4-2.9,2.4C1.6,12.5,0.9,12.4,0.4,12.1z"/>
						<path class="st1" d="M9.2,5.6L9.2,5.6c0-2.5,2-4.5,4.5-4.5s4.5,2,4.5,4.5l0,0c0,2.5-2,4.5-4.4,4.5c0,0,0,0-0.1,0
							C11.2,10,9.3,8.1,9.2,5.6L9.2,5.6z M16.9,5.6L16.9,5.6c0.1-1.8-1.3-3.3-3.1-3.4l0,0c-1.7,0-3.2,1.4-3.1,3.2v0.1l0,0
							c-0.1,1.8,1.3,3.3,3.1,3.3c0,0,0,0,0.1,0c1.7,0,3.2-1.4,3.2-3.2C16.9,5.6,16.9,5.6,16.9,5.6L16.9,5.6z"/>
						<path class="st1" d="M19.9,6.5V1.2h1.3v5c-0.2,1.3,0.7,2.4,2,2.6c0.1,0,0.3,0,0.4,0c1.4,0,2.6-1.1,2.6-2.5c0-0.1,0-0.1,0-0.2
							V1.2h1.3v8.6h-1.3V8.3c-0.6,1.1-1.7,1.7-2.9,1.7c-1.7,0.1-3.2-1.2-3.3-3C19.9,6.9,19.9,6.7,19.9,6.5z"/>
						<path class="st1" d="M29.9,1.2h1.3v2.2C31.7,2,33.1,1,34.7,1.1v1.4h-0.1c-1.9,0-3.4,1.3-3.4,3.9v3.4h-1.3
							C29.9,9.8,29.9,1.2,29.9,1.2z"/>
						<path class="st1" d="M35.9,4L35.9,4c-0.1-3.3,2.5-6,5.7-6c0.1,0,0.1,0,0.2,0c1.7-0.1,3.3,0.6,4.5,1.8l-0.9,1
							c-0.9-1-2.3-1.6-3.7-1.6c-2.5,0-4.5,2.1-4.5,4.6c0,0.1,0,0.1,0,0.2l0,0c-0.1,2.5,1.8,4.7,4.4,4.8h0.1c1.4,0,2.8-0.6,3.8-1.7
							l0.9,0.8c-1.2,1.3-2.9,2.1-4.6,2c-3.2,0-5.8-2.6-5.8-5.8C35.9,4.2,35.9,4.1,35.9,4z"/>
						<path class="st1" d="M47.4,7.3L47.4,7.3c0-1.9,1.5-2.8,3.7-2.8c0.9,0,1.8,0.1,2.6,0.4V4.6c0-1.5-0.9-2.3-2.5-2.3
							c-0.9,0-1.8,0.2-2.6,0.6l-0.4-1c1-0.5,2-0.7,3.1-0.7c1-0.1,2,0.3,2.8,0.9c0.6,0.7,1,1.6,0.9,2.5v5.2h-1.3V8.5
							c-0.7,1-1.9,1.5-3.1,1.5C49,10,47.4,9.1,47.4,7.3z M53.7,6.6V5.9c-0.8-0.2-1.7-0.4-2.5-0.4c-1.6,0-2.5,0.7-2.5,1.7l0,0
							c0,1.1,1,1.7,2.2,1.7C52.4,9,53.7,8,53.7,6.6L53.7,6.6z"/>
						<path class="st1" d="M57.2,1.2h1.3v2.2C59,2,60.4,1,62,1.1v1.4h-0.1c-1.9,0-3.4,1.3-3.4,3.9v3.4h-1.3V1.2z"/>
						<path class="st1" d="M67,8.9c1,0,2-0.4,2.7-1.2l0.8,0.7C69.6,9.5,68.3,10,67,10c-2.5-0.1-4.4-2.2-4.3-4.7
							C62.8,3,64.5,1.2,66.8,1c2.5,0,4,2,4,4.5c0,0.1,0,0.2,0,0.4H64C64,7.6,65.3,8.9,67,8.9z M69.5,5c-0.1-1.6-1-2.9-2.7-2.9
							C65.2,2.2,64,3.5,63.9,5H69.5z"/>
						<path class="st1" d="M76.4,8.9c1,0,2-0.4,2.7-1.2l0.8,0.7c-0.9,1-2.2,1.6-3.6,1.6c-2.5-0.1-4.4-2.2-4.3-4.7
							C72.2,3,73.9,1.2,76.2,1c2.5,0,4,2,4,4.5c0,0.1,0,0.2,0,0.4h-6.8C73.4,7.6,74.8,8.9,76.4,8.9z M78.9,5c-0.1-1.6-1-2.9-2.7-2.9
							c-1.5,0.1-2.8,1.3-2.8,2.9H78.9z"/>
						<path class="st1" d="M82,1.2h1.3v2.2C83.8,2,85.2,1,86.8,1.1v1.4h-0.1c-1.9,0-3.4,1.3-3.4,3.9v3.4H82V1.2z"/>
						<path class="st1" d="M88.5-1.8h8.4v1.2h-7v4.2h6.3v1.2h-6.3v5.1h-1.3L88.5-1.8L88.5-1.8z"/>
						<path class="st1" d="M97.7,7.3L97.7,7.3c0-1.9,1.5-2.8,3.7-2.8c0.9,0,1.8,0.1,2.6,0.4V4.6c0-1.5-0.9-2.3-2.5-2.3
							c-0.9,0-1.8,0.2-2.6,0.6l-0.4-1c1-0.5,2-0.7,3.1-0.7c1-0.1,2,0.3,2.8,0.9c0.6,0.7,1,1.6,0.9,2.5v5.2H104V8.5
							c-0.7,1-1.9,1.5-3.1,1.5C99.3,10,97.7,9.1,97.7,7.3z M104,6.6V5.9c-0.8-0.2-1.7-0.4-2.5-0.4c-1.6,0-2.5,0.7-2.5,1.7l0,0
							c0,1.1,1,1.7,2.2,1.7C102.7,9,104,8,104,6.6L104,6.6z"/>
						<path class="st1" d="M107.6-2.1h1.5v1.4h-1.5V-2.1z M107.7,1.2h1.3v8.6h-1.3V1.2z"/>
						<path class="st1" d="M111.5,1.2h1.3v2.2c0.5-1.5,1.9-1.4,3.5-1.4v1.4h-0.1c-1.9,0-3.4,0.3-3.4,2.9v3.4h-1.3V1.2z"/>
					</g>
				</g>
			</g>
		</g>
	</g>
</g>
<g>
	<g>
		<g>
			<g>
				<g>
					<defs>
						<rect id="SVGID_3_" x="-3.9" y="-6.2" width="42" height="59.4"/>
					</defs>
					<clipPath id="SVGID_4_">
						<use xlink:href="#SVGID_3_"  style="overflow:visible;"/>
					</clipPath>
					<g class="st2">
						<g>
							<g>
								<g>
									<defs>
										<rect id="SVGID_5_" x="-3.9" y="-6.2" width="42" height="59.4"/>
									</defs>
									<clipPath id="SVGID_6_">
										<use xlink:href="#SVGID_5_"  style="overflow:visible;"/>
									</clipPath>
									<path class="st3" d="M35,17.7c0,9.4-7.7,17.1-17.1,17.1S0.8,27.1,0.8,17.7S8.5,0.5,17.9,0.5C27.4,0.5,35,8.2,35,17.7"/>
								</g>
							</g>
						</g>
						<g>
							<g>
								<g>
									<defs>
										<rect id="SVGID_7_" x="-3.9" y="-6.2" width="42" height="59.4"/>
									</defs>
									<clipPath id="SVGID_8_">
										<use xlink:href="#SVGID_7_"  style="overflow:visible;"/>
									</clipPath>
									<path class="st4" d="M32.8,17.8c0,8.4-6.8,15.3-15.3,15.3c-8.4,0-15.3-6.8-15.3-15.3C2.2,9.4,9,2.5,17.5,2.5
										S32.8,9.4,32.8,17.8"/>
								</g>
							</g>
						</g>
						<g>
							<g>
								<g>
									<defs>
										<rect id="SVGID_9_" x="-3.9" y="-6.2" width="42" height="59.4"/>
									</defs>
									<clipPath id="SVGID_10_">
										<use xlink:href="#SVGID_9_"  style="overflow:visible;"/>
									</clipPath>
									<path class="st5" d="M33,17.7c0,8.2-6.7,14.9-14.9,14.9C9.9,32.7,3.2,26,3.2,17.7S9.9,2.8,18.1,2.8S33,9.5,33,17.7"/>
								</g>
							</g>
						</g>
						<g>
							<g>
								<g>
									<defs>
										<rect id="SVGID_11_" x="-3.9" y="-6.2" width="42" height="59.4"/>
									</defs>
									<clipPath id="SVGID_12_">
										<use xlink:href="#SVGID_11_"  style="overflow:visible;"/>
									</clipPath>
									<path class="st6" d="M29,8.8c-14.2,1.7-9.7,14.8-22.7,16.5c2.7,1.3,6.4,0.8,8.7-0.6s2.3-2.6,4-3.8c1.7-1.2,4-1,5.3-1.3
										c1.3-0.4,3.1-1.4,3.2-2c-1.9,0-0.2,0-3.6,0.1c-3.4,0.2-2-2,0.1-4.8C26.1,9.9,28.9,9.1,29,8.8"/>
								</g>
							</g>
						</g>
						<g>
							<g>
								<g>
									<defs>
										<rect id="SVGID_13_" x="-3.9" y="-6.2" width="42" height="59.4"/>
									</defs>
									<clipPath id="SVGID_14_">
										<use xlink:href="#SVGID_13_"  style="overflow:visible;"/>
									</clipPath>
									<path class="st7" d="M29,8.8c-14.2,1.7-9.7,14.8-22.7,16.5c5.8,1.3,10.4-3.4,12.2-7.2C20.3,14.3,23.1,9.9,29,8.8"/>
								</g>
							</g>
						</g>
						<g>
							<g>
								<g>
									<defs>
										<rect id="SVGID_15_" x="-3.9" y="-6.2" width="42" height="59.4"/>
									</defs>
									<clipPath id="SVGID_16_">
										<use xlink:href="#SVGID_15_"  style="overflow:visible;"/>
									</clipPath>
									<path class="st8" d="M31.9,9.1l-0.8,0.8c-0.6-0.6-1.6-0.6-2.2,0s-0.6,1.6,0,2.2l-1.4,1.4c-0.3,0.3-0.3,0.9,0,1.2l3,3
										c0.3,0.3,0.9,0.3,1.2,0l2.5-2.5C33.8,13,33,10.9,31.9,9.1 M29.3,11.6c-0.4-0.4-0.4-0.9,0-1.3c0.4-0.4,0.9-0.4,1.3,0
										L29.3,11.6z"/>
								</g>
							</g>
						</g>
						<g>
							<g>
								<g>
									<defs>
										<rect id="SVGID_17_" x="-3.9" y="-6.2" width="42" height="59.4"/>
									</defs>
									<clipPath id="SVGID_18_">
										<use xlink:href="#SVGID_17_"  style="overflow:visible;"/>
									</clipPath>
									<path class="st9" d="M30.3,12.6c0.3-1.3,0.9-2.5,1.6-3.4l-0.7,0.7c-0.6-0.6-1.6-0.6-2.2,0s-0.6,1.6,0,2.2l-1.4,1.4
										c-0.3,0.3-0.3,0.9,0,1.2l2.5,2.5C29.7,15.8,29.8,14.2,30.3,12.6 M29.3,10.3c0.4-0.4,0.9-0.4,1.3,0l-1.3,1.3
										C29,11.3,29,10.7,29.3,10.3"/>
								</g>
							</g>
						</g>
					</g>
				</g>
			</g>
		</g>
	</g>
</g>
<circle class="st10" cx="13.4" cy="15.6" r="2.4"/>
<path class="st11" d="M15,15.6c0,0.2,0,1.2-0.7,2c-0.2,0.2-0.4,0.4-0.6,0.4c-0.2,0-0.7,0-1.2-0.2c-0.6-0.3-1.4-1.1-1.4-2.2
	c0-0.9,0.5-1.5,0.6-1.6s0.7-0.8,1.6-0.8c0.2,0,0.3,0,0.4,0c0.2,0.1,0.4,0.2,0.6,0.4C14.9,14.4,14.9,15.2,15,15.6z"/>
</svg>
