<svg xmlns="http://www.w3.org/2000/svg" width="26.25" height="21.049" viewBox="0 0 26.25 21.049"><g transform="translate(0 -48.25)"><g transform="translate(0 48.25)"><path d="M16.607,60.631a3.482,3.482,0,1,1-3.482-3.482A3.481,3.481,0,0,1,16.607,60.631ZM23.733,51.9a2.517,2.517,0,0,1,2.517,2.517V66.615A2.685,2.685,0,0,1,23.566,69.3H2.684A2.685,2.685,0,0,1,0,66.615V54.422H0A2.517,2.517,0,0,1,2.517,51.9H7.552l.237-1a3.431,3.431,0,0,1,3.342-2.652h3.994A3.431,3.431,0,0,1,18.467,50.9l.232,1ZM5.25,55.538A1.264,1.264,0,1,0,3.983,56.8,1.263,1.263,0,0,0,5.25,55.538Zm14.085,5.094a6.21,6.21,0,1,0-6.21,6.21A6.211,6.211,0,0,0,19.335,60.631Z" transform="translate(0 -48.25)" fill="#fff"/></g></g></svg>