<svg xmlns="http://www.w3.org/2000/svg" width="151.09" height="156.941" viewBox="0 0 151.09 156.941"><g transform="translate(-9.545)" opacity="0.34"><g transform="translate(9.545)"><path d="M108.755,10.487,108.018,0,9.545,6.925l9.293,132.149,8.889-.625V24.466H135.645V146.624l10.807,1.163L160.635,16.074Z" transform="translate(-9.545)" fill="#001d40"/></g><g transform="translate(36.93 33.668)"><path d="M98.884,109.838V233.111H188.4V109.838Zm29.49,20.981c5.673,0,10.145,2.071,13,5.8l-6.17,5.507a7.83,7.83,0,0,0-6.335-3.4c-4.058,0-6.791,2.816-6.791,7.246s2.733,7.246,6.791,7.246a7.83,7.83,0,0,0,6.335-3.4l6.17,5.507c-2.857,3.726-7.329,5.8-13,5.8-9.317,0-16.149-6.253-16.149-15.155S119.057,130.819,128.374,130.819Zm45.275,82.849H113.632v-9.2h60.017v9.2Zm0-16.368H113.632v-9.2h60.017v9.2Zm0-16.368H113.632v-9.2h60.017v9.2Zm-10.74-20.465H153.3l-12.257-28.986h10.518l6.915,16.936,7.081-16.936h9.606Z" transform="translate(-98.884 -109.838)" fill="#001d40"/></g></g></svg>