<svg xmlns="http://www.w3.org/2000/svg" xmlns:xlink="http://www.w3.org/1999/xlink" width="156.217" height="35.257" viewBox="0 0 156.217 35.257"><defs><clipPath id="a"><rect width="156.217" height="35.257" fill="none"/></clipPath></defs><g transform="translate(0)" clip-path="url(#a)"><path d="M134.409,848.981a16.084,16.084,0,1,1-16.084,16.084,16.083,16.083,0,0,1,16.084-16.084m0-1.545a17.628,17.628,0,1,0,17.628,17.628,17.648,17.648,0,0,0-17.628-17.628Z" transform="translate(-116.78 -847.436)" fill="#fff"/><circle cx="14.646" cy="14.646" r="14.646" transform="translate(2.983 2.982)" fill="#fff"/><g transform="translate(7.368 11.756)"><path d="M133.994,880.806v-.033a5.747,5.747,0,0,1,5.856-5.872,5.921,5.921,0,0,1,4.445,1.768l-1.282,1.476a4.517,4.517,0,0,0-3.18-1.411,3.812,3.812,0,0,0-3.747,4.007v.032a3.84,3.84,0,0,0,3.747,4.039,4.45,4.45,0,0,0,3.261-1.476l1.282,1.3a5.859,5.859,0,0,1-4.607,2.012A5.711,5.711,0,0,1,133.994,880.806Z" transform="translate(-133.994 -874.901)" fill="#00a0d4"/><path d="M162.191,875.356h8.452v1.817h-6.457v3.1h5.727v1.817h-5.727v4.624h-2Z" transform="translate(-150.122 -875.161)" fill="#00a0d4"/></g><g transform="translate(39.924 11.741)"><path d="M210.419,893.4l.432-1.012a2.687,2.687,0,0,0,1.345.315c.764,0,1.245-.4,1.76-1.61l-3.9-8.55h1.411l3.121,7.156,2.756-7.156H218.7l-3.6,8.866c-.73,1.776-1.561,2.424-2.855,2.424A3.9,3.9,0,0,1,210.419,893.4Z" transform="translate(-210.054 -879.259)" fill="#fff"/><path d="M231.618,886.636V886.6a4.474,4.474,0,0,1,8.948-.033v.033a4.457,4.457,0,0,1-4.5,4.482A4.4,4.4,0,0,1,231.618,886.636Zm7.637,0V886.6a3.248,3.248,0,0,0-3.188-3.354,3.168,3.168,0,0,0-3.138,3.321v.033a3.22,3.22,0,0,0,3.171,3.337A3.167,3.167,0,0,0,239.255,886.636Z" transform="translate(-222.388 -879.015)" fill="#fff"/><path d="M256.635,887.875v-5.329h1.279v5.014a2.288,2.288,0,0,0,2.374,2.59,2.535,2.535,0,0,0,2.574-2.69v-4.914h1.261v8.584h-1.261v-1.495a3.269,3.269,0,0,1-2.939,1.677A3.135,3.135,0,0,1,256.635,887.875Z" transform="translate(-236.697 -879.259)" fill="#fff"/><path d="M279.868,882.342h1.278v2.241a3.676,3.676,0,0,1,3.5-2.391v1.378h-.1c-1.876,0-3.4,1.345-3.4,3.934v3.42h-1.278Z" transform="translate(-249.986 -879.055)" fill="#fff"/><path d="M293.908,881.026v-.034a5.855,5.855,0,0,1,5.877-6.01,6.052,6.052,0,0,1,4.533,1.843l-.9.963a5.05,5.05,0,0,0-3.652-1.594,4.556,4.556,0,0,0-4.5,4.765v.033a4.585,4.585,0,0,0,4.5,4.8,5.043,5.043,0,0,0,3.752-1.677l.863.847A6.052,6.052,0,0,1,299.735,887,5.8,5.8,0,0,1,293.908,881.026Z" transform="translate(-258.016 -874.932)" fill="#fff"/><path d="M320.748,888.462v-.033c0-1.843,1.494-2.806,3.669-2.806a8.99,8.99,0,0,1,2.623.366v-.266c0-1.528-.93-2.325-2.54-2.325a5.967,5.967,0,0,0-2.607.615l-.382-1.046a7.042,7.042,0,0,1,3.121-.73,3.811,3.811,0,0,1,2.773.946,3.4,3.4,0,0,1,.9,2.524v5.246H327.04v-1.279a3.762,3.762,0,0,1-3.088,1.461C322.342,891.135,320.748,890.222,320.748,888.462Zm6.309-.664V887a8.813,8.813,0,0,0-2.507-.365c-1.594,0-2.507.7-2.507,1.727v.033c0,1.079,1,1.71,2.158,1.71C325.779,890.105,327.057,889.159,327.057,887.8Z" transform="translate(-273.368 -879.081)" fill="#fff"/><path d="M343.748,882.342h1.278v2.241a3.676,3.676,0,0,1,3.5-2.391v1.378h-.1c-1.876,0-3.4,1.345-3.4,3.934v3.42h-1.278Z" transform="translate(-286.523 -879.055)" fill="#fff"/><path d="M360.71,889.973a3.552,3.552,0,0,0,2.706-1.212l.8.714a4.429,4.429,0,0,1-3.536,1.61,4.493,4.493,0,0,1-.166-8.965c2.54,0,4,2.026,4,4.549,0,.116,0,.249-.016.449h-6.807A3,3,0,0,0,360.71,889.973Zm2.507-3.885c-.149-1.561-1.046-2.889-2.739-2.889a2.963,2.963,0,0,0-2.789,2.889Z" transform="translate(-293.756 -879.015)" fill="#fff"/><path d="M382.7,889.973a3.551,3.551,0,0,0,2.706-1.212l.8.714a4.429,4.429,0,0,1-3.536,1.61,4.493,4.493,0,0,1-.166-8.965c2.54,0,4,2.026,4,4.549,0,.116,0,.249-.017.449h-6.807A3,3,0,0,0,382.7,889.973Zm2.507-3.885c-.149-1.561-1.046-2.889-2.739-2.889a2.964,2.964,0,0,0-2.789,2.889Z" transform="translate(-306.334 -879.015)" fill="#fff"/><path d="M401.617,882.342H402.9v2.241a3.675,3.675,0,0,1,3.5-2.391v1.378h-.1c-1.876,0-3.4,1.345-3.4,3.934v3.42h-1.279Z" transform="translate(-319.623 -879.055)" fill="#fff"/><path d="M416.859,875.448h8.351v1.212h-7.039v4.151h6.292v1.2h-6.292v5.064h-1.312Z" transform="translate(-328.341 -875.199)" fill="#fff"/><path d="M438.348,888.462v-.033c0-1.843,1.494-2.806,3.669-2.806a8.992,8.992,0,0,1,2.623.366v-.266c0-1.528-.93-2.325-2.54-2.325a5.97,5.97,0,0,0-2.607.615l-.381-1.046a7.042,7.042,0,0,1,3.121-.73,3.809,3.809,0,0,1,2.772.946,3.393,3.393,0,0,1,.9,2.524v5.246H444.64v-1.279a3.764,3.764,0,0,1-3.088,1.461C439.942,891.135,438.348,890.222,438.348,888.462Zm6.309-.664V887a8.817,8.817,0,0,0-2.507-.365c-1.594,0-2.507.7-2.507,1.727v.033c0,1.079,1,1.71,2.158,1.71C443.379,890.105,444.657,889.159,444.657,887.8Z" transform="translate(-340.632 -879.081)" fill="#fff"/><path d="M461.425,874.866h1.461v1.411h-1.461Zm.083,3.287h1.278v8.584h-1.278Z" transform="translate(-353.831 -874.866)" fill="#fff"/><path d="M470.578,882.342h1.278v2.241a3.676,3.676,0,0,1,3.5-2.391v1.378h-.1c-1.876,0-3.4,1.345-3.4,3.934v3.42h-1.278Z" transform="translate(-359.066 -879.055)" fill="#fff"/></g></g></svg>