<svg xmlns="http://www.w3.org/2000/svg" width="12.494" height="12.488" viewBox="0 0 12.494 12.488"><path d="M22076-17482.758a6.252,6.252,0,0,1,6.248-6.24,6.252,6.252,0,0,1,6.246,6.24,6.257,6.257,0,0,1-6.246,6.248A6.257,6.257,0,0,1,22076-17482.758Zm1.33,0a4.925,4.925,0,0,0,4.918,4.918,4.924,4.924,0,0,0,4.916-4.918,4.924,4.924,0,0,0-4.916-4.916A4.924,4.924,0,0,0,22077.328-17482.758Zm4.85.838a.519.519,0,0,1-.516-.516v-3.891a.516.516,0,0,1,.516-.512.514.514,0,0,1,.516.512v3.375h2.807a.514.514,0,0,1,.51.516.514.514,0,0,1-.51.516Z" transform="translate(-22075.998 17488.998)" fill="#001d40" opacity="0.2"/></svg>