<svg xmlns="http://www.w3.org/2000/svg" width="10.269" height="12.884" viewBox="0 0 10.269 12.884"><path d="M9.869,92.774H9.435V83.631a.418.418,0,0,0-.418-.418H7.882v-.734a.418.418,0,0,0-.418-.418H2.8a.418.418,0,0,0-.418.418v.734H1.251a.418.418,0,0,0-.418.418v9.143H.4a.4.4,0,0,0-.4.4v1.371a.4.4,0,0,0,.4.4H9.869a.4.4,0,0,0,.4-.4V93.174A.4.4,0,0,0,9.869,92.774ZM3.541,91.053a.116.116,0,0,1-.116.116H1.907a.116.116,0,0,1-.116-.116V89.535a.116.116,0,0,1,.116-.116H3.425a.116.116,0,0,1,.116.116Zm0-2.424a.116.116,0,0,1-.116.116H1.907a.116.116,0,0,1-.116-.116V87.111a.116.116,0,0,1,.116-.116H3.425a.116.116,0,0,1,.116.116Zm0-2.449a.116.116,0,0,1-.116.116H1.907a.116.116,0,0,1-.116-.116V84.661a.116.116,0,0,1,.116-.116H3.425a.116.116,0,0,1,.116.116ZM6.009,93.1a.116.116,0,0,1-.116.116H4.375a.116.116,0,0,1-.116-.116V89.535a.116.116,0,0,1,.116-.116H5.893a.116.116,0,0,1,.116.116Zm0-4.474a.116.116,0,0,1-.116.116H4.375a.116.116,0,0,1-.116-.116V87.111a.116.116,0,0,1,.116-.116H5.893a.116.116,0,0,1,.116.116Zm0-2.449a.116.116,0,0,1-.116.116H4.375a.116.116,0,0,1-.116-.116V84.661a.116.116,0,0,1,.116-.116H5.893a.116.116,0,0,1,.116.116Zm2.475,4.873a.116.116,0,0,1-.116.116H6.85a.116.116,0,0,1-.116-.116V89.535a.116.116,0,0,1,.116-.116H8.368a.116.116,0,0,1,.116.116Zm0-2.424a.116.116,0,0,1-.116.116H6.85a.116.116,0,0,1-.116-.116V87.111a.116.116,0,0,1,.116-.116H8.368a.116.116,0,0,1,.116.116Zm0-2.449a.116.116,0,0,1-.116.116H6.85a.116.116,0,0,1-.116-.116V84.661a.116.116,0,0,1,.116-.116H8.368a.116.116,0,0,1,.116.116Z" transform="translate(0 -82.061)" fill="#001d40" opacity="0.2"/></svg>