<svg xmlns="http://www.w3.org/2000/svg" width="125" height="125" viewBox="0 0 125 125"><rect width="125" height="125" fill="#d8d8d8" opacity="0.404"/><path d="M65.263,152.909H62.4V92.446a2.767,2.767,0,0,0-2.764-2.764H52.126V84.825a2.767,2.767,0,0,0-2.764-2.764H18.545a2.767,2.767,0,0,0-2.764,2.764v4.857H8.273a2.767,2.767,0,0,0-2.764,2.764v60.463H2.644A2.647,2.647,0,0,0,0,155.554v9.067a2.647,2.647,0,0,0,2.644,2.644H65.263a2.647,2.647,0,0,0,2.644-2.644v-9.067A2.647,2.647,0,0,0,65.263,152.909ZM23.416,141.525a.77.77,0,0,1-.767.767H12.609a.77.77,0,0,1-.767-.767V131.486a.77.77,0,0,1,.767-.767H22.648a.77.77,0,0,1,.767.767Zm0-16.028a.77.77,0,0,1-.767.767H12.609a.77.77,0,0,1-.767-.767V115.457a.77.77,0,0,1,.767-.767H22.648a.77.77,0,0,1,.767.767Zm0-16.2a.77.77,0,0,1-.767.767H12.609a.77.77,0,0,1-.767-.767V99.258a.77.77,0,0,1,.767-.767H22.648a.77.77,0,0,1,.767.767ZM39.74,155.081a.77.77,0,0,1-.767.767H28.934a.77.77,0,0,1-.767-.767v-23.6a.77.77,0,0,1,.767-.767H38.973a.77.77,0,0,1,.767.767Zm0-29.584a.77.77,0,0,1-.767.767H28.934a.77.77,0,0,1-.767-.767V115.457a.77.77,0,0,1,.767-.767H38.973a.77.77,0,0,1,.767.767Zm0-16.2a.77.77,0,0,1-.767.767H28.934a.77.77,0,0,1-.767-.767V99.258a.77.77,0,0,1,.767-.767H38.973a.77.77,0,0,1,.767.767ZM56.11,141.525a.77.77,0,0,1-.767.767H45.3a.77.77,0,0,1-.767-.767V131.486a.77.77,0,0,1,.767-.767H55.343a.77.77,0,0,1,.767.767Zm0-16.028a.77.77,0,0,1-.767.767H45.3a.77.77,0,0,1-.767-.767V115.457a.77.77,0,0,1,.767-.767H55.343a.77.77,0,0,1,.767.767Zm0-16.2a.77.77,0,0,1-.767.767H45.3a.77.77,0,0,1-.767-.767V99.258a.77.77,0,0,1,.767-.767H55.343a.77.77,0,0,1,.767.767Z" transform="translate(28.738 -65.06)" fill="#001d40" opacity="0.2"/></svg>