<svg xmlns="http://www.w3.org/2000/svg" width="56" height="56" viewBox="0 0 56 56"><g transform="translate(-572)"><g transform="translate(572)" fill="#fff" stroke="#318bd6" stroke-width="1" opacity="0.1"><rect width="56" height="56" rx="5" stroke="none"/><rect x="0.5" y="0.5" width="55" height="55" rx="4.5" fill="none"/></g><g transform="translate(585.801 9.364)" opacity="0.2"><path d="M17.216,10.469a5.184,5.184,0,0,1,2.412,3.851,4.182,4.182,0,1,0-2.412-3.851Zm-2.741,8.567a4.184,4.184,0,1,0-4.185-4.184A4.184,4.184,0,0,0,14.475,19.036Zm1.775.285H12.7a5.364,5.364,0,0,0-5.357,5.358V29.02l.011.068.3.094a24.386,24.386,0,0,0,7.284,1.175,14.954,14.954,0,0,0,6.36-1.194l.279-.141h.03V24.678A5.362,5.362,0,0,0,16.25,19.321ZM23.172,15H19.649a5.156,5.156,0,0,1-1.591,3.592A6.366,6.366,0,0,1,22.6,24.685v1.338a14.417,14.417,0,0,0,5.615-1.18L28.5,24.7h.03V20.358A5.363,5.363,0,0,0,23.172,15ZM7.133,14.717a4.156,4.156,0,0,0,2.225-.646,5.178,5.178,0,0,1,1.946-3.3c0-.078.012-.156.012-.235a4.184,4.184,0,1,0-4.183,4.183Zm3.758,3.876A5.16,5.16,0,0,1,9.3,15.021c-.131-.01-.26-.02-.393-.02H5.357A5.363,5.363,0,0,0,0,20.358V24.7l.011.067.3.094A25.118,25.118,0,0,0,6.343,26V24.685A6.367,6.367,0,0,1,10.891,18.593Z" fill="#001d40"/></g></g></svg>