<svg xmlns="http://www.w3.org/2000/svg" width="16.999" height="31.442" viewBox="0 0 16.999 31.442"><g transform="translate(-22.077)"><path d="M38.436.007,34.359,0c-4.581,0-7.541,3.037-7.541,7.738v3.568h-4.1a.641.641,0,0,0-.641.641v5.169a.641.641,0,0,0,.641.641h4.1V30.8a.641.641,0,0,0,.641.641h5.349a.641.641,0,0,0,.641-.641V17.757h4.793a.641.641,0,0,0,.641-.641l0-5.169a.642.642,0,0,0-.641-.641H33.449V8.281c0-1.454.346-2.192,2.24-2.192h2.747a.641.641,0,0,0,.641-.641V.648A.641.641,0,0,0,38.436.007Z" fill="#1c6aaa"/></g></svg>