<svg xmlns="http://www.w3.org/2000/svg" width="47.948" height="47.948" viewBox="0 0 47.948 47.948"><g transform="translate(-762.025 -616.051)"><rect width="47.949" height="47.949" rx="23.974" transform="translate(762.026 616.051)" fill="#318bd6"/><g transform="translate(780.333 629.847)"><path d="M33.1,0,30.352,0c-3.086,0-5.081,2.046-5.081,5.213v2.4H22.509a.432.432,0,0,0-.432.432v3.483a.432.432,0,0,0,.432.432h2.762v8.788a.432.432,0,0,0,.432.432h3.6a.432.432,0,0,0,.432-.432V11.964h3.229a.432.432,0,0,0,.432-.432V8.049a.432.432,0,0,0-.432-.432H29.738V5.579c0-.979.233-1.477,1.509-1.477H33.1a.432.432,0,0,0,.432-.432V.436A.432.432,0,0,0,33.1,0Z" transform="translate(-22.077)" fill="#fff"/></g></g></svg>