<svg xmlns="http://www.w3.org/2000/svg" xmlns:xlink="http://www.w3.org/1999/xlink" width="20.429" height="18.175" viewBox="0 0 20.429 18.175"><defs><clipPath id="a"><rect width="20.429" height="18.175" fill="none"/></clipPath></defs><g clip-path="url(#a)"><path d="M10.214,18.175a1.2,1.2,0,0,1-.79-.3c-.825-.722-1.621-1.4-2.323-2l0,0a43.2,43.2,0,0,1-5.072-4.761A7.6,7.6,0,0,1,0,6.139,6.385,6.385,0,0,1,1.621,1.779,5.493,5.493,0,0,1,5.707,0a5.138,5.138,0,0,1,3.21,1.108,6.567,6.567,0,0,1,1.3,1.355,6.568,6.568,0,0,1,1.3-1.355A5.138,5.138,0,0,1,14.722,0a5.494,5.494,0,0,1,4.086,1.779,6.385,6.385,0,0,1,1.62,4.361A7.6,7.6,0,0,1,18.4,11.116a43.193,43.193,0,0,1-5.071,4.76c-.7.6-1.5,1.278-2.327,2A1.2,1.2,0,0,1,10.214,18.175ZM5.707,1.2A4.31,4.31,0,0,0,2.5,2.59a5.194,5.194,0,0,0-1.3,3.55,6.4,6.4,0,0,0,1.751,4.214,42.514,42.514,0,0,0,4.927,4.613l0,0c.7.6,1.5,1.281,2.335,2.008.836-.728,1.636-1.41,2.342-2.012a42.521,42.521,0,0,0,4.926-4.613,6.4,6.4,0,0,0,1.751-4.214,5.194,5.194,0,0,0-1.3-3.55A4.31,4.31,0,0,0,14.722,1.2a3.969,3.969,0,0,0-2.478.858,5.807,5.807,0,0,0-1.381,1.6.755.755,0,0,1-1.3,0,5.8,5.8,0,0,0-1.381-1.6A3.969,3.969,0,0,0,5.707,1.2Zm0,0" fill="#001d40" opacity="0.24"/></g></svg>