<svg xmlns="http://www.w3.org/2000/svg" xmlns:xlink="http://www.w3.org/1999/xlink" width="70" height="70" viewBox="0 0 70 70"><defs><clipPath id="a"><rect width="70" height="70" fill="none"/></clipPath></defs><g clip-path="url(#a)"><rect width="70" height="70" rx="35" fill="#fff"/><g transform="translate(19.006 9.56)"><path d="M30.1,27.195v11.13H23.652V27.94c0-2.609-.933-4.389-3.269-4.389a3.531,3.531,0,0,0-3.311,2.36,4.415,4.415,0,0,0-.214,1.573v10.84H10.4s.087-17.588,0-19.41h6.454v2.751c-.013.021-.03.043-.042.063h.042v-.063a6.408,6.408,0,0,1,5.816-3.207C26.921,18.459,30.1,21.233,30.1,27.195ZM3.652,9.558a3.363,3.363,0,1,0-.086,6.708H3.61a3.365,3.365,0,1,0,.043-6.708ZM.383,38.325H6.836V18.915H.383Z" fill="#318bd6"/></g></g></svg>