<svg xmlns="http://www.w3.org/2000/svg" width="31.414" height="30.019" viewBox="0 0 31.414 30.019"><g transform="translate(0 -9.558)"><path d="M31.414,27.962V39.576H24.681V28.74c0-2.722-.974-4.58-3.411-4.58a3.684,3.684,0,0,0-3.455,2.463,4.607,4.607,0,0,0-.223,1.642V39.576H10.857s.091-18.353,0-20.254h6.735v2.871c-.014.021-.031.045-.044.065h.044v-.065a6.687,6.687,0,0,1,6.069-3.347C28.092,18.846,31.414,21.741,31.414,27.962Zm-27.6-18.4a3.51,3.51,0,1,0-.089,7h.045a3.511,3.511,0,1,0,.044-7ZM.4,39.576H7.133V19.322H.4Z" transform="translate(0 0)" fill="#4692d1"/></g></svg>