<svg xmlns="http://www.w3.org/2000/svg" width="56" height="56" viewBox="0 0 56 56"><g transform="translate(-286)"><g transform="translate(286)" fill="#fff" stroke="#f0f0f0" stroke-width="1"><rect width="56" height="56" rx="5" stroke="none"/><rect x="0.5" y="0.5" width="55" height="55" rx="4.5" fill="none"/></g><path d="M80.467,0a9.9,9.9,0,0,0-9.894,9.894c0,6.77,8.854,16.71,9.231,17.129a.891.891,0,0,0,1.326,0c.377-.42,9.231-10.359,9.231-17.129A9.9,9.9,0,0,0,80.467,0Zm0,14.872a4.978,4.978,0,1,1,4.978-4.978A4.983,4.983,0,0,1,80.467,14.872Z" transform="translate(233.267 14.457)" fill="#001d40" opacity="0.2"/></g></svg>