<svg xmlns="http://www.w3.org/2000/svg" width="11.612" height="11.612" viewBox="0 0 11.612 11.612"><g id="goal" transform="translate(0.001)" opacity="0.2"><path id="Path_137" data-name="Path 137" d="M153.19,6.866a.34.34,0,0,1,.5,0l.918,1.014,1.21-1.29-1.561-2.082a1.1,1.1,0,0,0-.479-.372V2.5h2.393a.34.34,0,0,0,.23-.591l-.66-.66.67-.67A.34.34,0,0,0,156.175,0h-2.733a.34.34,0,0,0-.34.34v3.8a1.1,1.1,0,0,0-.478.372L151.063,6.59l1.21,1.29Zm0,0" transform="translate(-147.637)" fill="#001d40"/><path id="Path_138" data-name="Path 138" d="M11.543,318.878,8.6,314.953l-1.381,1.472a.34.34,0,0,1-.248.107h0a.34.34,0,0,1-.249-.112l-.913-1.009-.913,1.01a.341.341,0,0,1-.249.112h0a.34.34,0,0,1-.248-.107l-1.381-1.472L.067,318.878a.34.34,0,0,0,.272.544H11.271a.34.34,0,0,0,.272-.544Zm0,0" transform="translate(0 -307.81)" fill="#001d40"/></g></svg>