<svg xmlns="http://www.w3.org/2000/svg" width="56" height="56" viewBox="0 0 56 56"><g transform="translate(10.789 -45.463)"><g transform="translate(-10.789 45.463)" fill="#fff" stroke="#f0f0f0" stroke-width="1"><rect width="56" height="56" rx="5" stroke="none"/><rect x="0.5" y="0.5" width="55" height="55" rx="4.5" fill="none"/></g><g transform="translate(0 59.013)"><path d="M47.933,334.282a3.01,3.01,0,0,0,2.061-.777l-9.977-9.977-.691.5q-1.12.825-1.818,1.287a11.2,11.2,0,0,1-1.857.943,5.66,5.66,0,0,1-2.162.481H33.45a5.658,5.658,0,0,1-2.162-.481,11.165,11.165,0,0,1-1.857-.943q-.7-.461-1.818-1.287c-.208-.153-.439-.32-.689-.5l-9.979,9.98a3.011,3.011,0,0,0,2.061.777Z" transform="translate(-15.863 -306.614)" fill="#318bd6"/><path d="M1.985,200.265A10.418,10.418,0,0,1,0,198.555v15.18l8.794-8.794Q6.155,203.1,1.985,200.265Z" transform="translate(0 -189.634)" fill="#318bd6"/><path d="M420.134,200.265q-4.015,2.717-6.825,4.68l8.79,8.79v-15.18A10.845,10.845,0,0,1,420.134,200.265Z" transform="translate(-386.885 -189.634)" fill="#318bd6"/><path d="M32.076,59.013H3.15A2.806,2.806,0,0,0,.821,60.035a3.965,3.965,0,0,0-.815,2.555,4.592,4.592,0,0,0,1.081,2.683,9.749,9.749,0,0,0,2.3,2.269q.668.472,4.029,2.8c1.209.838,2.261,1.569,3.165,2.2.77.537,1.435,1,1.983,1.387l.293.209.542.39q.639.462,1.061.747t1.022.639a5.961,5.961,0,0,0,1.13.531,3.127,3.127,0,0,0,.982.177h.039a3.128,3.128,0,0,0,.983-.177,5.948,5.948,0,0,0,1.13-.531q.6-.354,1.022-.639t1.061-.747l.541-.39.294-.209,1.989-1.382,7.208-5a9.347,9.347,0,0,0,2.4-2.417,5.2,5.2,0,0,0,.962-2.967,3.17,3.17,0,0,0-3.144-3.144Z" transform="translate(-0.006 -59.013)" fill="#318bd6"/></g></g></svg>