<svg xmlns="http://www.w3.org/2000/svg" width="11" height="11" viewBox="0 0 11 11"><path d="M9.995.363a.413.413,0,0,0-.026-.1.013.013,0,0,1,0,0h0A.424.424,0,0,0,9.911.162L9.895.143a.425.425,0,0,0-.08-.072h0A.41.41,0,0,0,9.718.024L9.693.016A.415.415,0,0,0,9.583,0H6.667a.417.417,0,0,0,0,.833H8.577L6.09,3.32a3.752,3.752,0,1,0,.589.589L9.167,1.423V3.333a.417.417,0,0,0,.833,0V.417c0-.009,0-.017,0-.026S10,.372,9.995.363ZM3.75,9.167A2.918,2.918,0,1,1,6.667,6.25,2.92,2.92,0,0,1,3.75,9.167Zm0,0" transform="translate(0.5 0.5)" fill="#001d40" stroke="#001d40" stroke-width="1" opacity="0.2"/></svg>