<svg xmlns="http://www.w3.org/2000/svg" width="56" height="56" viewBox="0 0 56 56"><g transform="translate(-694 -2542)"><g transform="translate(694 2542)" fill="#fff" stroke="#318bd6" stroke-width="1" opacity="0.1"><rect width="56" height="56" rx="5" stroke="none"/><rect x="0.5" y="0.5" width="55" height="55" rx="4.5" fill="none"/></g><path d="M59.057,7.7c-.036-.787-.036-1.538-.036-2.29a1.054,1.054,0,0,0-1.073-1.073A14.376,14.376,0,0,1,47.25.3a1.1,1.1,0,0,0-1.5,0,14.376,14.376,0,0,1-10.7,4.043,1.054,1.054,0,0,0-1.073,1.073c0,.751,0,1.5-.036,2.29-.143,7.513-.358,17.818,12.2,22.147l.358.072.358-.072C59.379,25.519,59.2,15.251,59.057,7.7ZM45.64,18.113a1.155,1.155,0,0,1-.751.286h-.036a1.007,1.007,0,0,1-.751-.358l-3.327-3.685,1.61-1.431L45,15.823l5.8-5.51,1.467,1.574Z" transform="translate(675.674 2555.119)" fill="#29cc5b"/></g></svg>