<svg xmlns="http://www.w3.org/2000/svg" width="25.274" height="23.313" viewBox="0 0 25.274 23.313"><g transform="translate(0 -1.178)"><path d="M18.8,10.6s1.022-.777.244-1.554-1.534.226-1.534.226L9.683,17.1s-1.832,2.364-3.225.935.934-3.226.934-3.226L17.648,4.551s2.393-2.637,4.643-.388-.4,4.648-.4,4.648L10.371,20.334s-3.687,4.259-7.1.846.888-7.059.888-7.059l8.749-8.751s.98-.818.246-1.554S11.6,4.06,11.6,4.06L1.56,14.1A5.937,5.937,0,0,0,2,22.487a5.94,5.94,0,0,0,8.39.444l13.8-13.8a4.465,4.465,0,0,0-.531-6.338,4.463,4.463,0,0,0-6.337-.532L5.451,14.132s-3.041,2.473-.282,5.231,5.187-.325,5.187-.325Z" transform="translate(0 0)" fill="#318bd6"/></g></svg>