<svg xmlns="http://www.w3.org/2000/svg" width="56" height="56" viewBox="0 0 56 56"><g transform="translate(-901 -175)"><g transform="translate(901 175)" fill="#fff" stroke="#318bd6" stroke-width="1" opacity="0.1"><rect width="56" height="56" rx="5" stroke="none"/><rect x="0.5" y="0.5" width="55" height="55" rx="4.5" fill="none"/></g><path d="M22041.184-17048.848l-3.043-6.535a13.458,13.458,0,0,0,8.781-5.645l3.643,7.809a1.036,1.036,0,0,1-1.295,1.406l-4.289-1.561-.322.148-1.564,4.295a1.02,1.02,0,0,1-.975.68A1.025,1.025,0,0,1,22041.184-17048.848Zm-12.617-.082-1.561-4.295-.326-.148-4.289,1.561a1.033,1.033,0,0,1-1.289-1.406l3.641-7.809a13.444,13.444,0,0,0,8.783,5.645l-3.051,6.535a1.009,1.009,0,0,1-.934.6A1.023,1.023,0,0,1,22028.566-17048.93Zm-4.117-19.689a11.393,11.393,0,0,1,11.383-11.379,11.389,11.389,0,0,1,11.379,11.379,11.389,11.389,0,0,1-11.379,11.377A11.392,11.392,0,0,1,22024.449-17068.619Zm13.879,5a1.033,1.033,0,0,0,1.5-1.09l-.477-2.777,2.016-1.965a1.035,1.035,0,0,0-.57-1.766l-2.789-.4-1.252-2.529a1.018,1.018,0,0,0-.924-.576,1.027,1.027,0,0,0-.93.576l-1.244,2.529-2.789.4a1.036,1.036,0,0,0-.576,1.766l2.02,1.965-.477,2.777a1.034,1.034,0,0,0,1.5,1.09l2.5-1.311Z" transform="translate(-21105.662 17267.127)" fill="#001d40" opacity="0.2"/></g></svg>