<svg xmlns="http://www.w3.org/2000/svg" width="20" height="20" viewBox="0 0 20 20"><path d="M9.867,0A10,10,0,1,0,20,9.865,10,10,0,0,0,9.867,0Zm-.03,16.086H9.782a1.456,1.456,0,0,1,.034-2.911h.049a1.455,1.455,0,1,1-.028,2.911Zm3.577-7.1a6.611,6.611,0,0,1-1.194,1.069l-.61.421a1.659,1.659,0,0,0-.613.747,1.545,1.545,0,0,0-.094.626v.1H8.572l.007-.2a2.548,2.548,0,0,1,.384-1.681A9.9,9.9,0,0,1,10.7,8.67a1.835,1.835,0,0,0,.412-.421,1.481,1.481,0,0,0,.353-.863,1.683,1.683,0,0,0-.32-.995,1.332,1.332,0,0,0-1.153-.433A1.257,1.257,0,0,0,8.829,6.5,2.163,2.163,0,0,0,8.476,7.66v.1h-2.4l0-.1a3.651,3.651,0,0,1,1.56-3.149A4.11,4.11,0,0,1,9.9,3.913a4.879,4.879,0,0,1,2.916.839,2.911,2.911,0,0,1,1.18,2.512A2.874,2.874,0,0,1,13.415,8.987Z" transform="translate(-0.001)" fill="#001d40" opacity="0.2"/></svg>