<svg xmlns="http://www.w3.org/2000/svg" width="47.948" height="47.948" viewBox="0 0 47.948 47.948"><g transform="translate(-833.051 -616.051)"><rect width="47.949" height="47.949" rx="23.974" transform="translate(833.051 616.051)" fill="#55acee"/><g transform="translate(846.347 631.05)"><g transform="translate(0 0)"><path d="M22.229,59.577a9.106,9.106,0,0,1-2.618.718,4.579,4.579,0,0,0,2-2.521,9.193,9.193,0,0,1-2.9,1.107,4.563,4.563,0,0,0-7.77,4.157,12.946,12.946,0,0,1-9.4-4.764,4.565,4.565,0,0,0,1.411,6.087A4.56,4.56,0,0,1,.9,63.789v.057a4.564,4.564,0,0,0,3.657,4.471,4.619,4.619,0,0,1-1.2.16,4.377,4.377,0,0,1-.858-.085,4.562,4.562,0,0,0,4.259,3.167,9.149,9.149,0,0,1-5.663,1.949A9.692,9.692,0,0,1,0,73.445,12.889,12.889,0,0,0,6.99,75.5,12.884,12.884,0,0,0,19.964,62.523l-.015-.59A9.106,9.106,0,0,0,22.229,59.577Z" transform="translate(-0.001 -57.441)" fill="#fff"/></g></g></g></svg>