<svg xmlns="http://www.w3.org/2000/svg" width="34.202" height="27.782" viewBox="0 0 34.202 27.782"><g transform="translate(-0.001 -57.441)"><g transform="translate(0.001 57.441)"><path d="M34.2,60.728a14.012,14.012,0,0,1-4.029,1.1,7.045,7.045,0,0,0,3.084-3.879,14.145,14.145,0,0,1-4.458,1.7,7.022,7.022,0,0,0-11.956,6.4A19.92,19.92,0,0,1,2.384,58.723a7.024,7.024,0,0,0,2.171,9.365,7.017,7.017,0,0,1-3.178-.881V67.3A7.023,7.023,0,0,0,7,74.176a7.107,7.107,0,0,1-1.849.246,6.735,6.735,0,0,1-1.321-.13,7.02,7.02,0,0,0,6.553,4.873,14.077,14.077,0,0,1-8.714,3A14.911,14.911,0,0,1,0,82.066a19.833,19.833,0,0,0,10.755,3.157c12.907,0,19.962-10.691,19.962-19.962l-.024-.908A14.011,14.011,0,0,0,34.2,60.728Z" transform="translate(-0.001 -57.441)" fill="#5fb6ff"/></g></g></svg>