<svg xmlns="http://www.w3.org/2000/svg" width="56" height="56" viewBox="0 0 56 56"><g transform="translate(-806 -175)"><g transform="translate(806 175)" fill="#fff" stroke="#318bd6" stroke-width="1" opacity="0.1"><rect width="56" height="56" rx="5" stroke="none"/><rect x="0.5" y="0.5" width="55" height="55" rx="4.5" fill="none"/></g><path d="M22044.045-17050v-12.635H22051V-17050Zm3.9-8.732h1.76v-1.76h-1.76Zm-2.656,0h1.76v-1.76h-1.76Zm-5.943,8.732v-7.2h-6.68v7.2h-2.949v-18.373l5.406-4.66V-17080h6.221v5h-4.461v1.971l5.406,4.66V-17050Zm-6.338-14.975a3,3,0,0,0,2.994,2.988,3,3,0,0,0,2.994-2.988,3,3,0,0,0-2.994-2.994A3,3,0,0,0,22033-17064.973Zm1.412,14.975v-5.439h3.166v5.439Zm-13.414,0v-12.635h6.955V-17050Zm3.885-8.672h1.754v-1.76h-1.754Zm-2.656,0h1.754v-1.76h-1.754Zm12.535-6.309a1.238,1.238,0,0,1,1.232-1.234,1.243,1.243,0,0,1,1.24,1.234,1.242,1.242,0,0,1-1.24,1.24A1.237,1.237,0,0,1,22034.766-17064.979Z" transform="translate(-21202 17268)" fill="#001d40" opacity="0.2"/></g></svg>