<svg xmlns="http://www.w3.org/2000/svg" width="56" height="56" viewBox="0 0 56 56"><g transform="translate(-859)"><g transform="translate(859)" fill="#fff" stroke="#318bd6" stroke-width="1" opacity="0.1"><rect width="56" height="56" rx="5" stroke="none"/><rect x="0.5" y="0.5" width="55" height="55" rx="4.5" fill="none"/></g><path d="M-12790.777-219.605a31.155,31.155,0,0,1,4.3.444c-1.141,2.816-2.7,4.7-4.3,5.339Zm-6.734.444a31.69,31.69,0,0,1,4.3-.444v5.783C-12794.814-214.466-12796.37-216.346-12797.512-219.162Zm13.407.55a21.256,21.256,0,0,1,2.738.929l-.016.016c-.077.071-.164.132-.244.2-.315.273-.637.546-.971.791-.154.109-.312.212-.466.318-.277.19-.554.376-.84.543-.18.109-.362.206-.543.305-.276.151-.556.3-.839.428-.2.093-.389.177-.591.26-.1.042-.2.074-.3.116A17.264,17.264,0,0,0-12784.1-218.612Zm-14.015,3.793c-.192-.084-.386-.167-.578-.257-.289-.135-.572-.283-.849-.434-.18-.1-.36-.193-.537-.3-.289-.174-.572-.363-.852-.556-.147-.1-.3-.2-.453-.309-.348-.257-.679-.534-1.006-.82-.067-.061-.142-.113-.213-.174l-.016-.016a21.155,21.155,0,0,1,2.738-.929,17.371,17.371,0,0,0,2.063,3.909C-12797.92-214.745-12798.02-214.781-12798.119-214.819Zm14.773-6.117a31.482,31.482,0,0,0,1.045-7.216h6.052a15.76,15.76,0,0,1-3.391,8.6A22.046,22.046,0,0,0-12783.346-220.936Zm-24.394-7.216h6.053a31.59,31.59,0,0,0,1.045,7.216,22.088,22.088,0,0,0-3.707,1.385A15.76,15.76,0,0,1-12807.739-228.152Zm16.962,6.114v-6.114h6.046a29.427,29.427,0,0,1-.961,6.67A33.379,33.379,0,0,0-12790.777-222.039Zm-8.479-6.114h6.046v6.114a33.406,33.406,0,0,0-5.085.556A29.427,29.427,0,0,1-12799.257-228.152Zm16.956-2.43a31.48,31.48,0,0,0-1.045-7.213,22.619,22.619,0,0,0,3.706-1.385,15.75,15.75,0,0,1,3.391,8.6Zm-8.477,0v-6.107a32.942,32.942,0,0,0,5.085-.559,29.425,29.425,0,0,1,.961,6.667Zm-8.479,0a29.425,29.425,0,0,1,.961-6.667,32.956,32.956,0,0,0,5.085.559v6.107Zm-8.482,0a15.75,15.75,0,0,1,3.391-8.6,22.372,22.372,0,0,0,3.707,1.385,31.588,31.588,0,0,0-1.045,7.213Zm16.962-14.329c1.6.646,3.16,2.523,4.3,5.336a31.67,31.67,0,0,1-4.3.45Zm-6.734,5.339c1.142-2.816,2.7-4.693,4.3-5.339v5.786A31.191,31.191,0,0,1-12797.512-239.573Zm11.344-4.455c.1.042.2.074.3.116.2.084.389.167.582.257.289.135.571.283.849.434.18.1.359.193.536.3.289.177.572.366.852.556.151.1.306.2.454.312.344.257.675.53,1,.816.068.061.146.113.213.177l.016.016a21.677,21.677,0,0,1-2.732.929A17.432,17.432,0,0,0-12786.168-244.028Zm-16.457,2.98.016-.016c.077-.071.161-.132.241-.2.318-.276.64-.546.974-.791.151-.113.313-.212.467-.318.272-.19.553-.376.835-.546.181-.106.363-.2.547-.3.276-.151.553-.3.839-.431.192-.09.386-.174.585-.257.1-.042.2-.077.3-.116a17.175,17.175,0,0,0-2.061,3.909A21.55,21.55,0,0,1-12802.625-241.048Z" transform="translate(13678.984 257.822)" fill="#001d40" opacity="0.2"/></g></svg>